<svg
  xmlns="http://www.w3.org/2000/svg"
  xmlns:xlink="http://www.w3.org/1999/xlink"
  width="297"
  zoomAndPan="magnify"
  viewBox="0 0 222.75 157.5"
  height="210"
  preserveAspectRatio="xMidYMid meet"
  version="1.0"
><defs><clipPath id="1325a6c04a"><path
        d="M 0.226562 0 L 222.273438 0 L 222.273438 157 L 0.226562 157 Z M 0.226562 0 "
        clip-rule="nonzero"
      /></clipPath><clipPath id="5b02b5bd9c"><path
        d="M 1.652344 47 L 58 47 L 58 115 L 1.652344 115 Z M 1.652344 47 "
        clip-rule="nonzero"
      /></clipPath><clipPath id="2e57e2e80a"><path
        d="M 161 17 L 220.953125 17 L 220.953125 101 L 161 101 Z M 161 17 "
        clip-rule="nonzero"
      /></clipPath></defs><g clip-path="url(#1325a6c04a)"><path
      fill="#ffffff"
      d="M 0.226562 0 L 222.523438 0 L 222.523438 163.914062 L 0.226562 163.914062 Z M 0.226562 0 "
      fill-opacity="1"
      fill-rule="nonzero"
    /><path
      fill="#ffffff"
      d="M 0.226562 0 L 222.523438 0 L 222.523438 157.179688 L 0.226562 157.179688 Z M 0.226562 0 "
      fill-opacity="1"
      fill-rule="nonzero"
    /><path
      fill="#ffffff"
      d="M 0.226562 0 L 222.523438 0 L 222.523438 157.179688 L 0.226562 157.179688 Z M 0.226562 0 "
      fill-opacity="1"
      fill-rule="nonzero"
    /></g><g clip-path="url(#5b02b5bd9c)"><path
      fill="#262626"
      d="M 32.832031 113.800781 L 37.386719 95.214844 L 1.71875 85.570312 L 3.214844 80.027344 L 52.746094 47.808594 L 57.679688 49.140625 L 46.246094 91.464844 L 55.699219 94.023438 L 54.152344 99.75 L 44.699219 97.191406 L 40.332031 114.007812 Z M 11 81.9375 L 39.722656 89.699219 L 48.484375 57.25 Z M 11 81.9375 "
      fill-opacity="1"
      fill-rule="nonzero"
    /></g><path
    fill="#262626"
    d="M 199.789062 112.640625 L 26.367188 112.640625 C 24.023438 112.640625 21.679688 112.597656 19.335938 112.640625 C 19.234375 112.640625 19.132812 112.640625 19.027344 112.640625 C 17.648438 112.640625 17.648438 114.789062 19.027344 114.789062 L 192.449219 114.789062 C 194.792969 114.789062 197.136719 114.835938 199.480469 114.789062 L 199.789062 114.789062 C 201.167969 114.789062 201.171875 112.640625 199.789062 112.640625 Z M 199.789062 112.640625 "
    fill-opacity="1"
    fill-rule="nonzero"
  /><path
    fill="#262626"
    d="M 140.867188 148.890625 C 143.566406 148.769531 145.09375 150.796875 143.332031 151.859375 C 134.546875 157.171875 119.152344 151.992188 127.914062 149.394531 C 128.996094 149.078125 136.671875 149.078125 140.867188 148.890625 Z M 140.867188 148.890625 "
    fill-opacity="1"
    fill-rule="nonzero"
  /><path
    fill="#262626"
    d="M 108.195312 31.1875 C 108.195312 37.207031 107.003906 42.558594 104.621094 47.242188 C 102.234375 51.929688 98.972656 55.601562 94.828125 58.265625 C 90.6875 60.9375 85.9375 62.277344 80.585938 62.277344 C 75.304688 62.277344 70.59375 60.9375 66.453125 58.265625 C 62.308594 55.59375 59.027344 51.921875 56.605469 47.242188 C 54.1875 42.558594 52.976562 37.207031 52.976562 31.1875 C 52.976562 25.171875 54.1875 19.820312 56.609375 15.132812 C 59.023438 10.449219 62.304688 6.753906 66.453125 4.054688 C 70.597656 1.351562 75.308594 0 80.585938 0 C 85.9375 0 90.6875 1.351562 94.832031 4.054688 C 98.972656 6.753906 102.238281 10.449219 104.621094 15.132812 C 107.003906 19.820312 108.195312 25.171875 108.195312 31.1875 Z M 100.613281 31.1875 C 100.613281 26.351562 99.769531 22.09375 98.082031 18.417969 C 96.394531 14.738281 94.050781 11.859375 91.042969 9.785156 C 88.035156 7.707031 84.554688 6.667969 80.597656 6.664062 C 76.644531 6.664062 73.136719 7.703125 70.082031 9.78125 C 67.039062 11.859375 64.671875 14.738281 62.988281 18.414062 C 61.300781 22.09375 60.460938 26.347656 60.457031 31.1875 C 60.457031 36.023438 61.320312 40.28125 63.042969 43.960938 C 64.765625 47.636719 67.128906 50.5 70.136719 52.539062 C 73.140625 54.585938 76.625 55.605469 80.582031 55.605469 C 84.539062 55.605469 88.019531 54.566406 91.023438 52.492188 C 94.03125 50.414062 96.375 47.550781 98.0625 43.902344 C 99.75 40.253906 100.597656 36.015625 100.605469 31.1875 Z M 100.613281 31.1875 "
    fill-opacity="1"
    fill-rule="nonzero"
  /><path
    fill="#fcdbc0"
    d="M 137.453125 28.710938 C 137.527344 28.996094 132.425781 34.242188 132.425781 34.242188 L 138.949219 36.171875 L 145.289062 28.582031 Z M 137.453125 28.710938 "
    fill-opacity="1"
    fill-rule="nonzero"
  /><path
    fill="#f29c24"
    d="M 91.546875 37.714844 C 91.90625 35.613281 91.664062 33.121094 89.953125 31.863281 C 88.328125 30.671875 86.011719 31.078125 84.246094 32.046875 C 82.480469 33.011719 73.625 36.914062 71.132812 38.34375 C 68.816406 39.683594 67.089844 42.292969 67.375 44.964844 C 67.660156 47.636719 70.386719 49.976562 72.976562 49.304688 C 75.566406 48.636719 76.859375 45.65625 79.140625 44.226562 C 79.730469 43.859375 80.417969 43.589844 81.109375 43.671875 C 81.800781 43.75 82.472656 44.25 82.585938 44.941406 C 82.707031 45.691406 82.183594 46.542969 82.601562 47.183594 C 82.886719 47.617188 83.472656 47.714844 83.992188 47.742188 C 85.652344 47.839844 87.289062 47.691406 88.902344 47.300781 C 89.25 47.214844 89.617188 47.101562 89.84375 46.820312 C 90.070312 46.535156 90.085938 46.191406 90.109375 45.851562 C 90.175781 44.945312 91.1875 39.816406 91.546875 37.714844 Z M 91.546875 37.714844 "
    fill-opacity="1"
    fill-rule="nonzero"
  /><path
    fill="#5553ad"
    d="M 106.730469 52.480469 L 90.714844 58.167969 L 91.191406 43.542969 C 91.191406 43.542969 90.535156 40.941406 83.488281 43.386719 C 79.796875 44.664062 78.023438 47.28125 78.023438 47.28125 C 78.023438 47.28125 70.929688 72.675781 78.714844 76.78125 C 87.199219 81.253906 111.515625 68.835938 111.515625 68.835938 Z M 106.730469 52.480469 "
    fill-opacity="1"
    fill-rule="nonzero"
  /><path
    fill="#f29c24"
    d="M 128.753906 144.773438 C 129.183594 147.457031 130.496094 150.355469 133.074219 151.167969 C 135.519531 151.933594 138.148438 150.480469 139.878906 148.589844 C 141.613281 146.699219 149.660156 139.644531 153.113281 135.5625 C 156.613281 131.425781 156.371094 129.128906 154.933594 126.023438 C 153.496094 122.917969 149.253906 121.238281 146.402344 123.109375 C 143.546875 124.980469 143.210938 129.121094 141.046875 131.785156 C 140.488281 132.476562 139.757812 133.082031 138.902344 133.273438 C 138.042969 133.464844 137.019531 133.140625 136.601562 132.351562 C 136.148438 131.496094 136.429688 130.253906 135.664062 129.65625 C 135.144531 129.246094 134.394531 129.371094 133.757812 129.554688 C 131.71875 130.128906 129.804688 130.988281 128.019531 132.132812 C 127.632812 132.378906 127.230469 132.667969 127.078125 133.101562 C 126.9375 133.507812 127.042969 133.960938 127.152344 134.378906 C 127.449219 135.488281 128.335938 142.089844 128.753906 144.773438 Z M 128.753906 144.773438 "
    fill-opacity="1"
    fill-rule="nonzero"
  /><path
    fill="#5553ad"
    d="M 108.160156 74.800781 C 108.160156 74.800781 117.59375 95.019531 119.195312 103.480469 C 120.171875 108.632812 126.199219 144.085938 127.59375 136.847656 C 128.738281 130.902344 135.945312 128.730469 136.382812 131.363281 C 136.382812 131.363281 139.003906 114.820312 134.167969 92.863281 C 132.789062 86.613281 124.292969 67.738281 124.292969 67.738281 Z M 108.160156 74.800781 "
    fill-opacity="1"
    fill-rule="nonzero"
  /><path
    fill="#262626"
    d="M 110.910156 75.734375 C 113.261719 74.574219 115.664062 73.539062 118.121094 72.625 C 119.851562 71.984375 121.671875 71.394531 123.511719 71.558594 C 124.355469 71.636719 125.230469 71.863281 126.03125 71.59375 C 126.105469 71.796875 126.1875 71.992188 126.28125 72.183594 C 121.128906 73.105469 114.109375 75.496094 110.046875 78.804688 C 108.742188 77.464844 108.832031 76.070312 108.238281 74.652344 L 109.734375 75.511719 C 109.953125 75.65625 110.191406 75.757812 110.449219 75.8125 C 110.710938 75.851562 111.003906 75.78125 110.910156 75.734375 Z M 110.910156 75.734375 "
    fill-opacity="1"
    fill-rule="nonzero"
  /><path
    fill="#00ef67"
    d="M 134.550781 32.453125 C 134.550781 32.453125 131.6875 28.015625 125.742188 34.222656 C 119.796875 40.433594 121.148438 41.09375 111.828125 46.625 C 105.355469 50.472656 94.023438 51.726562 94.914062 53.273438 C 97.464844 57.710938 105.261719 55.265625 105.261719 55.265625 C 105.261719 55.265625 99.316406 65.675781 97.109375 67.003906 C 94.898438 68.332031 110.761719 75.863281 110.761719 75.863281 C 110.761719 75.863281 120.011719 70.769531 124.855469 71.65625 C 129.699219 72.542969 144.453125 55.046875 147.535156 49.0625 C 150.617188 43.078125 160.085938 46.628906 160.085938 46.628906 C 160.085938 46.628906 169.117188 38.210938 170.214844 33.785156 L 144.328125 30.105469 C 144.328125 30.105469 141.152344 33.53125 139.703125 33.851562 C 137.492188 34.339844 134.550781 32.453125 134.550781 32.453125 Z M 134.550781 32.453125 "
    fill-opacity="1"
    fill-rule="nonzero"
  /><path
    fill="#262626"
    d="M 128.796875 55.347656 C 132.148438 50.734375 135.988281 47.757812 140.800781 44.734375 C 145.496094 41.78125 147.003906 42.125 147.570312 41.984375 C 147.570312 41.984375 136.425781 53.84375 128.796875 55.347656 Z M 128.796875 55.347656 "
    fill-opacity="1"
    fill-rule="nonzero"
  /><path
    fill="#262626"
    d="M 108.964844 75.015625 C 108.882812 75.015625 108.824219 74.980469 108.78125 74.914062 C 108.707031 74.792969 108.730469 74.695312 108.851562 74.617188 C 124.902344 64.78125 142.144531 46.898438 142.316406 46.722656 C 142.414062 46.617188 142.515625 46.617188 142.621094 46.714844 C 142.722656 46.8125 142.726562 46.914062 142.625 47.019531 C 142.453125 47.199219 125.171875 65.117188 109.078125 74.984375 C 109.042969 75.007812 109.003906 75.015625 108.964844 75.015625 Z M 108.964844 75.015625 "
    fill-opacity="1"
    fill-rule="nonzero"
  /><path
    fill="#262626"
    d="M 134.167969 130.042969 L 134.15625 130.042969 C 134.0625 130.035156 134.015625 129.984375 134.023438 129.886719 C 135.28125 114.585938 132.523438 99.578125 129.992188 89.679688 C 127.242188 78.953125 124.160156 71.753906 124.125 71.679688 C 124.085938 71.59375 124.113281 71.53125 124.199219 71.492188 C 124.289062 71.457031 124.351562 71.480469 124.386719 71.566406 C 124.417969 71.640625 127.507812 78.855469 130.253906 89.605469 C 132.792969 99.527344 135.558594 114.570312 134.296875 129.914062 C 134.289062 129.992188 134.246094 130.035156 134.167969 130.042969 Z M 134.167969 130.042969 "
    fill-opacity="1"
    fill-rule="nonzero"
  /><path
    fill="#262626"
    d="M 83.566406 75.574219 C 81.550781 75.574219 79.882812 75.015625 78.691406 73.941406 C 77.402344 72.78125 76.769531 71.035156 76.902344 69.03125 C 77.167969 65.015625 77.761719 61.148438 78.347656 57.414062 C 78.933594 53.679688 79.523438 49.835938 79.789062 45.835938 C 79.796875 45.691406 79.875 45.625 80.015625 45.632812 C 80.160156 45.644531 80.226562 45.71875 80.21875 45.863281 C 79.953125 49.882812 79.351562 53.746094 78.769531 57.480469 C 78.191406 61.21875 77.59375 65.0625 77.332031 69.0625 C 77.207031 70.957031 77.773438 72.535156 78.980469 73.625 C 80.476562 74.980469 82.796875 75.441406 85.691406 74.953125 C 92.671875 73.78125 94.742188 72.882812 99.738281 70.710938 L 100.058594 70.566406 C 100.1875 70.507812 100.28125 70.546875 100.339844 70.675781 C 100.394531 70.808594 100.359375 70.902344 100.230469 70.960938 L 99.910156 71.101562 C 94.878906 73.292969 92.796875 74.199219 85.761719 75.378906 C 85.035156 75.503906 84.304688 75.566406 83.566406 75.574219 Z M 83.566406 75.574219 "
    fill-opacity="1"
    fill-rule="nonzero"
  /><path
    fill="#262626"
    d="M 147.570312 42.199219 C 147.53125 42.199219 147.492188 42.1875 147.460938 42.167969 L 135.15625 34.578125 C 135.03125 34.503906 135.007812 34.40625 135.082031 34.28125 C 135.160156 34.160156 135.257812 34.136719 135.382812 34.214844 L 147.683594 41.800781 C 147.777344 41.859375 147.808594 41.9375 147.78125 42.042969 C 147.75 42.148438 147.679688 42.199219 147.574219 42.199219 Z M 147.570312 42.199219 "
    fill-opacity="1"
    fill-rule="nonzero"
  /><path
    fill="#262626"
    d="M 160.238281 46.871094 C 160.238281 46.871094 169.269531 38.453125 170.371094 34.023438 C 168.105469 35.464844 165.515625 36.121094 164.019531 38.359375 C 163.203125 39.582031 163.117188 40.648438 162.832031 42.089844 C 162.453125 43.945312 161.589844 45.539062 160.238281 46.871094 Z M 160.238281 46.871094 "
    fill-opacity="1"
    fill-rule="nonzero"
  /><path
    fill="#fcdbc0"
    d="M 168.871094 36.328125 L 187.972656 37.152344 C 187.972656 37.152344 195.445312 31.824219 198.09375 33.15625 C 200.738281 34.488281 195.160156 36.027344 195.160156 36.027344 C 195.160156 36.027344 200.078125 34.578125 202.347656 35.867188 C 204.617188 37.15625 199.324219 39.6875 194.78125 38.742188 C 190.242188 37.796875 203.296875 39.316406 198.945312 41.289062 L 192.535156 40.820312 C 192.535156 40.820312 199.132812 40.855469 198.257812 41.894531 C 197.378906 42.929688 192.457031 43.144531 188 42.25 C 183.542969 41.355469 176.554688 42.128906 172.742188 42.105469 C 170.300781 42.09375 163.015625 41.316406 163.015625 41.316406 C 163.015625 41.316406 162.585938 40.46875 163.714844 38.484375 C 164.300781 37.507812 165.089844 36.738281 166.082031 36.179688 Z M 168.871094 36.328125 "
    fill-opacity="1"
    fill-rule="nonzero"
  /><g clip-path="url(#2e57e2e80a)"><path
      fill="#262626"
      d="M 192.144531 97.839844 L 197.601562 77.25 L 161.632812 65.367188 L 163.472656 58.425781 L 215.925781 17.882812 L 220.894531 19.527344 L 206.847656 72.507812 L 216.355469 75.648438 L 214.453125 82.820312 L 204.949219 79.679688 L 199.488281 100.273438 Z M 171.3125 60.761719 L 200.261719 70.328125 L 211.03125 29.722656 Z M 171.3125 60.761719 "
      fill-opacity="1"
      fill-rule="nonzero"
    /></g><path
    fill="#fcdbc0"
    d="M 139.804688 45.371094 C 145.074219 48.261719 153.125 52.59375 159.394531 52.59375 C 162.492188 52.59375 165.519531 51.847656 168.605469 51.652344 C 173.230469 51.355469 177.738281 50.238281 182.484375 51.519531 C 183.101562 51.6875 183.914062 51.234375 183.609375 50.753906 C 183.457031 50.5 183.007812 50.261719 182.5 50.105469 C 180.714844 49.5625 179.496094 49.269531 177.207031 49.433594 C 182.457031 48.492188 180.832031 44.996094 184.65625 45.671875 C 185.675781 45.851562 188.121094 47.203125 188.660156 46.449219 C 189 45.976562 187.457031 44.832031 186.398438 44.277344 C 185.875 44.003906 184.855469 43.488281 183.796875 43.425781 C 182.152344 43.324219 178.417969 44.285156 178.417969 44.285156 C 176.851562 44.910156 174.863281 45.664062 173.3125 46.367188 C 171.910156 47 170.449219 47.589844 168.875 47.761719 C 167.339844 47.933594 165.789062 47.699219 164.265625 47.464844 C 159.207031 46.6875 153.910156 45.820312 149.9375 43.042969 C 149.507812 42.738281 148.117188 42.074219 147.566406 41.984375 C 147.148438 41.914062 147.140625 42.089844 146.625 42.164062 C 144.871094 42.421875 139.179688 45.433594 139.804688 45.371094 Z M 139.804688 45.371094 "
    fill-opacity="1"
    fill-rule="nonzero"
  /><path
    fill="#fcdbc0"
    d="M 182.140625 45.382812 C 185.039062 45.8125 186.351562 46.5625 188.21875 47.0625 C 189.1875 47.320312 189.507812 47.742188 189.421875 47.980469 C 189.164062 48.808594 188.125 48.730469 187.949219 48.695312 C 184.90625 48.152344 183.863281 47.511719 180.972656 47.269531 C 183.507812 47.917969 184.214844 47.894531 186.636719 48.765625 C 187.152344 48.949219 187.640625 49.707031 186.652344 50.136719 C 186.148438 50.359375 185.714844 50.214844 185.167969 50.136719 C 183.855469 49.953125 182.433594 49.671875 181.128906 49.449219 C 179.820312 49.222656 177.96875 49.617188 176.800781 49.617188 C 176.988281 49.273438 177.742188 49.066406 178.082031 48.875 C 178.417969 48.683594 178.78125 48.535156 179.109375 48.320312 C 180.164062 47.644531 181.222656 46.078125 182.140625 45.382812 Z M 182.140625 45.382812 "
    fill-opacity="1"
    fill-rule="nonzero"
  /><path
    fill="#262626"
    d="M 160.238281 46.914062 C 160.179688 46.914062 160.128906 46.890625 160.085938 46.847656 C 159.984375 46.746094 159.984375 46.644531 160.085938 46.542969 C 161.398438 45.242188 162.242188 43.6875 162.613281 41.875 C 162.660156 41.652344 162.699219 41.4375 162.738281 41.230469 C 162.945312 40.105469 163.121094 39.136719 163.835938 38.066406 C 164.902344 36.472656 166.46875 35.679688 168.128906 34.839844 C 168.835938 34.480469 169.558594 34.109375 170.253906 33.671875 C 170.375 33.59375 170.472656 33.617188 170.550781 33.738281 C 170.628906 33.859375 170.605469 33.957031 170.484375 34.035156 C 169.777344 34.484375 169.039062 34.859375 168.324219 35.222656 C 166.71875 36.035156 165.203125 36.804688 164.195312 38.308594 C 163.535156 39.300781 163.371094 40.1875 163.164062 41.3125 C 163.125 41.523438 163.085938 41.742188 163.042969 41.964844 C 162.648438 43.863281 161.761719 45.492188 160.382812 46.851562 C 160.34375 46.890625 160.296875 46.910156 160.238281 46.914062 Z M 160.238281 46.914062 "
    fill-opacity="1"
    fill-rule="nonzero"
  /><path
    fill="#262626"
    d="M 128.796875 55.5625 L 128.777344 55.5625 C 128.699219 55.554688 128.640625 55.515625 128.605469 55.445312 C 127.851562 53.992188 126.902344 52.683594 125.753906 51.515625 C 124.605469 50.347656 123.308594 49.378906 121.867188 48.605469 C 121.742188 48.539062 121.710938 48.441406 121.777344 48.3125 C 121.84375 48.1875 121.941406 48.160156 122.070312 48.226562 C 123.496094 48.992188 124.785156 49.949219 125.9375 51.09375 C 127.085938 52.234375 128.050781 53.519531 128.824219 54.945312 C 132.445312 50.113281 138.683594 45.601562 142.988281 43.175781 C 144.464844 42.339844 146.148438 42.03125 147.054688 41.871094 C 147.257812 41.832031 147.421875 41.800781 147.523438 41.777344 C 147.660156 41.742188 147.75 41.792969 147.785156 41.933594 C 147.816406 42.070312 147.765625 42.15625 147.628906 42.191406 C 147.511719 42.222656 147.34375 42.253906 147.132812 42.292969 C 146.25 42.453125 144.613281 42.75 143.199219 43.546875 C 138.855469 46 132.519531 50.59375 128.972656 55.472656 C 128.929688 55.53125 128.871094 55.5625 128.796875 55.5625 Z M 128.796875 55.5625 "
    fill-opacity="1"
    fill-rule="nonzero"
  /><path
    fill="#262626"
    d="M 141.382812 42.335938 L 141.359375 42.335938 C 139.390625 42.011719 137.558594 41.324219 135.859375 40.273438 C 134.160156 39.226562 132.726562 37.890625 131.558594 36.273438 C 131.503906 36.195312 131.511719 36.132812 131.589844 36.074219 C 131.667969 36.019531 131.734375 36.03125 131.789062 36.105469 C 132.9375 37.695312 134.34375 39.003906 136.011719 40.03125 C 137.675781 41.0625 139.472656 41.734375 141.40625 42.050781 C 141.5 42.058594 141.546875 42.113281 141.539062 42.207031 C 141.53125 42.300781 141.476562 42.347656 141.382812 42.339844 Z M 141.382812 42.335938 "
    fill-opacity="1"
    fill-rule="nonzero"
  /><path
    fill="#262626"
    d="M 160.527344 44.667969 C 160.429688 44.667969 160.382812 44.617188 160.382812 44.523438 C 160.324219 40.339844 162.816406 36.308594 166.515625 34.421875 C 159.996094 35.035156 153.515625 33.628906 147.238281 32.269531 C 147.144531 32.25 147.105469 32.191406 147.125 32.09375 C 147.144531 32 147.203125 31.960938 147.300781 31.984375 C 153.835938 33.402344 160.589844 34.867188 167.363281 34.035156 C 167.445312 34.027344 167.496094 34.0625 167.519531 34.144531 C 167.539062 34.222656 167.511719 34.28125 167.433594 34.3125 C 163.386719 35.960938 160.601562 40.15625 160.667969 44.523438 C 160.667969 44.617188 160.621094 44.667969 160.527344 44.667969 Z M 160.527344 44.667969 "
    fill-opacity="1"
    fill-rule="nonzero"
  /><path
    fill="#262626"
    d="M 125.640625 71.390625 C 125.589844 71.390625 125.550781 71.367188 125.519531 71.328125 C 125.46875 71.246094 125.480469 71.183594 125.558594 71.128906 C 129.050781 68.75 132.234375 66.011719 135.105469 62.914062 C 137.976562 59.8125 140.460938 56.429688 142.566406 52.765625 C 142.617188 52.6875 142.679688 52.671875 142.757812 52.71875 C 142.835938 52.765625 142.855469 52.828125 142.8125 52.910156 C 140.699219 56.59375 138.199219 59.992188 135.3125 63.109375 C 132.429688 66.222656 129.230469 68.976562 125.71875 71.363281 C 125.695312 71.382812 125.667969 71.390625 125.640625 71.390625 Z M 125.640625 71.390625 "
    fill-opacity="1"
    fill-rule="nonzero"
  /><path
    fill="#262626"
    d="M 98.113281 55.816406 C 100.542969 56.246094 102.9375 56.105469 105.300781 55.402344 C 103.320312 59.554688 98.691406 66.035156 97.476562 66.855469 C 97.246094 67.015625 97.03125 67.097656 97.011719 67.335938 C 96.992188 67.578125 97.152344 67.917969 97.476562 68.265625 C 97.765625 68.582031 98.910156 69.394531 99.335938 69.679688 C 99.695312 69.917969 101.363281 70.910156 102.523438 71.683594 C 102.027344 71.835938 101.574219 71.96875 101.121094 72.097656 C 100.753906 72.203125 100.382812 72.242188 100.003906 72.214844 C 99.625 72.183594 99.261719 72.09375 98.917969 71.933594 C 98.570312 71.777344 98.261719 71.566406 97.992188 71.296875 C 97.722656 71.03125 97.507812 70.726562 97.34375 70.382812 C 97.078125 69.820312 96.824219 69.257812 96.609375 68.726562 C 96.449219 68.335938 96.285156 67.925781 96.292969 67.5 C 96.308594 66.628906 97 65.941406 97.613281 65.324219 C 99.355469 63.585938 100.84375 61.652344 102.078125 59.523438 C 102.535156 58.738281 102.96875 57.847656 102.792969 56.957031 C 101.96875 57.082031 101.152344 57.046875 100.339844 56.847656 C 99.53125 56.652344 98.789062 56.308594 98.113281 55.816406 Z M 98.113281 55.816406 "
    fill-opacity="1"
    fill-rule="nonzero"
  /><path
    fill="#262626"
    d="M 127.699219 136.828125 C 127.742188 135.636719 128.421875 134.210938 129.1875 133.296875 C 130.019531 132.332031 130.992188 131.542969 132.109375 130.929688 C 132.808594 130.570312 133.367188 130.316406 134.144531 130.222656 C 134.925781 130.128906 135.777344 130.347656 136.292969 130.9375 L 136.386719 131.640625 C 131.707031 131.640625 128.917969 134.332031 127.984375 139.261719 C 127.777344 138.464844 127.683594 137.652344 127.699219 136.828125 Z M 127.699219 136.828125 "
    fill-opacity="1"
    fill-rule="nonzero"
  /><path
    fill="#262626"
    d="M 135.542969 31.136719 C 137.457031 31.84375 141.042969 31.691406 143.097656 31.453125 C 142.292969 32.734375 140.789062 33.753906 139.328125 33.992188 C 139.226562 33.644531 139.027344 33.367188 138.730469 33.160156 C 138.441406 32.964844 138.140625 32.792969 137.824219 32.644531 C 137.023438 32.222656 136.179688 31.722656 135.542969 31.136719 Z M 135.542969 31.136719 "
    fill-opacity="1"
    fill-rule="nonzero"
  /><path
    fill="#262626"
    d="M 141.566406 144.957031 C 141.523438 144.960938 141.488281 144.945312 141.460938 144.914062 C 141.394531 144.84375 141.398438 144.777344 141.46875 144.710938 C 152.449219 134.644531 153.113281 133.027344 153.816406 131.316406 C 154.359375 129.992188 154.175781 128.183594 153.367188 126.925781 C 153.035156 126.394531 152.601562 125.976562 152.058594 125.667969 C 151.511719 125.363281 150.929688 125.203125 150.304688 125.195312 C 149.75 125.183594 149.222656 125.300781 148.726562 125.550781 C 148.226562 125.800781 147.816406 126.15625 147.496094 126.609375 C 147.445312 126.691406 147.378906 126.703125 147.300781 126.648438 C 147.21875 126.59375 147.207031 126.527344 147.261719 126.449219 C 147.609375 125.953125 148.054688 125.570312 148.597656 125.296875 C 149.136719 125.023438 149.710938 124.894531 150.316406 124.910156 C 150.988281 124.921875 151.617188 125.089844 152.199219 125.421875 C 152.785156 125.75 153.253906 126.203125 153.609375 126.773438 C 154.46875 128.105469 154.660156 130.019531 154.082031 131.425781 C 153.367188 133.167969 152.691406 134.8125 141.664062 144.921875 C 141.636719 144.949219 141.601562 144.960938 141.566406 144.957031 Z M 141.566406 144.957031 "
    fill-opacity="1"
    fill-rule="nonzero"
  /><path
    fill="#262626"
    d="M 134.308594 150.347656 C 133.507812 150.347656 132.578125 150.136719 131.886719 149.441406 C 131.027344 148.582031 130.628906 147.726562 130.648438 146.820312 C 130.695312 144.949219 132.535156 143.277344 134.484375 141.503906 C 134.757812 141.257812 135.03125 141.011719 135.296875 140.761719 C 135.402344 140.691406 135.496094 140.699219 135.578125 140.792969 C 135.664062 140.886719 135.664062 140.980469 135.585938 141.078125 C 135.3125 141.328125 135.039062 141.574219 134.765625 141.824219 C 132.886719 143.53125 131.113281 145.144531 131.074219 146.835938 C 131.054688 147.625 131.417969 148.378906 132.183594 149.144531 C 133.148438 150.109375 134.714844 149.976562 135.402344 149.773438 C 135.539062 149.734375 135.628906 149.78125 135.671875 149.917969 C 135.710938 150.050781 135.664062 150.140625 135.527344 150.183594 C 135.128906 150.292969 134.722656 150.347656 134.308594 150.347656 Z M 134.308594 150.347656 "
    fill-opacity="1"
    fill-rule="nonzero"
  /><path
    fill="#262626"
    d="M 90.769531 42.40625 C 89.039062 41.261719 86.785156 41.144531 84.726562 41.386719 C 82.664062 41.632812 80.777344 42.734375 79.359375 44.25 C 80.324219 43.714844 80.933594 43.558594 82.167969 44.132812 C 85.070312 42.910156 87.941406 41.804688 90.679688 42.914062 C 90.722656 42.683594 90.730469 42.613281 90.769531 42.40625 Z M 90.769531 42.40625 "
    fill-opacity="1"
    fill-rule="nonzero"
  /><path
    fill="#262626"
    d="M 68.414062 47.425781 C 68.316406 47.425781 68.25 47.378906 68.214844 47.285156 C 67.402344 45.171875 68.191406 42.59375 69.390625 41.140625 C 71.519531 38.5625 74.332031 37.425781 77.3125 36.230469 C 78.105469 35.910156 78.921875 35.582031 79.734375 35.226562 C 80.351562 34.953125 81.101562 34.578125 81.890625 34.183594 C 84.765625 32.753906 88.34375 30.957031 89.992188 31.800781 C 90.046875 31.824219 90.085938 31.867188 90.105469 31.925781 C 90.128906 31.984375 90.125 32.039062 90.09375 32.09375 C 90.066406 32.148438 90.023438 32.183594 89.964844 32.203125 C 89.90625 32.21875 89.851562 32.214844 89.796875 32.183594 C 88.34375 31.4375 84.722656 33.246094 82.082031 34.566406 C 81.285156 34.964844 80.535156 35.339844 79.90625 35.621094 C 79.089844 35.980469 78.265625 36.3125 77.476562 36.632812 C 74.546875 37.808594 71.78125 38.921875 69.722656 41.417969 C 68.601562 42.777344 67.863281 45.175781 68.617188 47.132812 C 68.667969 47.265625 68.628906 47.359375 68.496094 47.410156 C 68.46875 47.421875 68.441406 47.425781 68.414062 47.425781 Z M 68.414062 47.425781 "
    fill-opacity="1"
    fill-rule="nonzero"
  /><path
    fill="#262626"
    d="M 162.019531 51.570312 C 160.378906 51.570312 158.757812 51.40625 157.15625 51.066406 C 157.007812 51.042969 156.949219 50.957031 156.980469 50.808594 C 157.011719 50.664062 157.101562 50.609375 157.246094 50.648438 C 159.378906 51.089844 161.535156 51.234375 163.710938 51.082031 C 165.886719 50.925781 168 50.476562 170.046875 49.734375 C 170.175781 49.699219 170.261719 49.742188 170.308594 49.867188 C 170.351562 49.992188 170.3125 50.082031 170.191406 50.136719 C 167.550781 51.09375 164.828125 51.574219 162.019531 51.570312 Z M 162.019531 51.570312 "
    fill-opacity="1"
    fill-rule="nonzero"
  /><path
    fill="#262626"
    d="M 83.890625 63.792969 C 83.804688 63.792969 83.738281 63.753906 83.699219 63.675781 C 83.660156 63.601562 83.664062 63.527344 83.714844 63.457031 C 85.863281 60.414062 88.25 58.605469 91.027344 57.921875 C 91.160156 57.898438 91.242188 57.953125 91.273438 58.082031 C 91.304688 58.214844 91.257812 58.300781 91.128906 58.339844 C 88.457031 58.996094 86.144531 60.75 84.066406 63.703125 C 84.023438 63.761719 83.964844 63.792969 83.890625 63.792969 Z M 83.890625 63.792969 "
    fill-opacity="1"
    fill-rule="nonzero"
  /><path
    fill="#262626"
    d="M 122.628906 113.527344 L 122.613281 113.527344 C 122.46875 113.515625 122.402344 113.4375 122.414062 113.296875 C 122.671875 109.773438 122.433594 106.28125 121.703125 102.824219 C 120.976562 99.367188 119.78125 96.078125 118.121094 92.960938 C 118.0625 92.835938 118.09375 92.742188 118.214844 92.675781 C 118.335938 92.609375 118.429688 92.636719 118.5 92.757812 C 120.179688 95.910156 121.386719 99.238281 122.121094 102.734375 C 122.859375 106.234375 123.097656 109.765625 122.839844 113.328125 C 122.828125 113.457031 122.757812 113.523438 122.628906 113.527344 Z M 122.628906 113.527344 "
    fill-opacity="1"
    fill-rule="nonzero"
  /><path
    fill="#262626"
    d="M 104.882812 63.898438 C 104.8125 63.898438 104.765625 63.863281 104.746094 63.796875 C 104.726562 63.726562 104.746094 63.671875 104.804688 63.632812 C 108.585938 61.199219 111.128906 56.890625 111.445312 52.398438 C 111.449219 52.304688 111.5 52.257812 111.597656 52.265625 C 111.691406 52.273438 111.738281 52.324219 111.730469 52.417969 C 111.410156 57 108.816406 61.386719 104.964844 63.871094 C 104.9375 63.886719 104.914062 63.898438 104.882812 63.898438 Z M 104.882812 63.898438 "
    fill-opacity="1"
    fill-rule="nonzero"
  /><path
    fill="#fcdbc0"
    d="M 136.160156 23.546875 C 135.753906 24.175781 135.300781 24.785156 135.015625 25.480469 C 134.714844 26.253906 134.582031 27.054688 134.613281 27.886719 C 134.636719 29.160156 135.011719 30.523438 136 31.292969 C 136.871094 31.972656 138.035156 32.066406 139.128906 32.074219 C 140.140625 32.078125 141.152344 32.027344 142.160156 31.925781 C 143.316406 31.804688 144.566406 31.5625 145.347656 30.679688 C 145.671875 30.316406 145.917969 29.839844 146.367188 29.664062 C 146.609375 29.570312 146.875 29.578125 147.128906 29.546875 C 147.621094 29.480469 148.050781 29.277344 148.417969 28.9375 C 148.925781 28.464844 149.183594 27.550781 148.671875 27.078125 C 148.53125 26.949219 148.355469 26.867188 148.214844 26.742188 C 147.640625 26.234375 147.898438 25.304688 148.042969 24.542969 C 148.273438 23.292969 148.097656 22.101562 147.511719 20.972656 C 146.816406 19.644531 145.578125 18.660156 144.203125 18.144531 C 142.824219 17.625 141.339844 16.980469 139.886719 17.191406 C 139.503906 17.222656 139.152344 17.339844 138.828125 17.546875 C 138.523438 17.765625 137.078125 22.117188 136.160156 23.546875 Z M 136.160156 23.546875 "
    fill-opacity="1"
    fill-rule="nonzero"
  /><path
    fill="#262626"
    d="M 139.246094 21.777344 C 139.214844 21.777344 139.183594 21.769531 139.152344 21.753906 C 138.785156 21.578125 138.402344 21.453125 138 21.386719 C 137.855469 21.363281 137.796875 21.28125 137.820312 21.136719 C 137.84375 20.992188 137.925781 20.933594 138.070312 20.957031 C 138.511719 21.03125 138.933594 21.167969 139.339844 21.359375 C 139.441406 21.410156 139.480469 21.492188 139.453125 21.601562 C 139.429688 21.710938 139.359375 21.769531 139.246094 21.769531 Z M 139.246094 21.777344 "
    fill-opacity="1"
    fill-rule="nonzero"
  /><path
    fill="#262626"
    d="M 143.867188 26 C 143.753906 26 143.683594 25.945312 143.65625 25.835938 C 143.570312 25.480469 143.433594 25.148438 143.242188 24.835938 C 142.957031 24.417969 142.710938 24.183594 142.277344 24.144531 C 142.132812 24.132812 142.070312 24.050781 142.082031 23.910156 C 142.097656 23.765625 142.175781 23.703125 142.316406 23.714844 C 142.910156 23.769531 143.246094 24.089844 143.59375 24.585938 C 143.816406 24.941406 143.976562 25.324219 144.074219 25.730469 C 144.109375 25.871094 144.054688 25.957031 143.914062 25.988281 C 143.898438 25.996094 143.882812 26 143.867188 26 Z M 143.867188 26 "
    fill-opacity="1"
    fill-rule="nonzero"
  /><path
    fill="#262626"
    d="M 145.480469 24.117188 C 145.058594 22.910156 144.320312 21.945312 143.265625 21.222656 C 143.015625 21.050781 142.664062 20.910156 142.441406 21.117188 C 142.371094 21.191406 142.324219 21.277344 142.308594 21.382812 C 142.273438 21.6875 142.367188 21.941406 142.59375 22.148438 C 142.808594 22.332031 143.042969 22.484375 143.296875 22.601562 C 144.046875 23 144.738281 23.476562 145.375 24.035156 "
    fill-opacity="1"
    fill-rule="nonzero"
  /><path
    fill="#262626"
    d="M 147.242188 29.3125 C 147.183594 29.3125 147.125 29.304688 147.070312 29.296875 C 146.925781 29.273438 146.867188 29.191406 146.890625 29.046875 C 146.914062 28.902344 146.996094 28.84375 147.140625 28.867188 C 147.296875 28.894531 147.441406 28.867188 147.582031 28.792969 C 147.722656 28.71875 147.824219 28.605469 147.886719 28.460938 C 147.949219 28.316406 147.960938 28.167969 147.921875 28.011719 C 147.882812 27.859375 147.800781 27.734375 147.675781 27.636719 C 147.558594 27.550781 147.546875 27.449219 147.632812 27.335938 C 147.722656 27.222656 147.820312 27.210938 147.9375 27.296875 C 148.125 27.445312 148.253906 27.632812 148.324219 27.863281 C 148.390625 28.09375 148.386719 28.320312 148.308594 28.546875 C 148.230469 28.773438 148.089844 28.957031 147.894531 29.097656 C 147.699219 29.234375 147.480469 29.304688 147.242188 29.300781 Z M 147.242188 29.3125 "
    fill-opacity="1"
    fill-rule="nonzero"
  /><path
    fill="#262626"
    d="M 136.777344 27.167969 C 136.628906 27.546875 136.605469 27.929688 136.707031 28.320312 C 136.792969 28.734375 137.03125 29.015625 137.421875 29.167969 C 137.546875 29.210938 137.671875 29.210938 137.792969 29.167969 C 138.019531 29.082031 138.125 28.816406 138.171875 28.574219 C 138.253906 28.117188 138.207031 27.671875 138.03125 27.238281 C 137.960938 27.042969 137.839844 26.878906 137.671875 26.753906 C 137.511719 26.644531 137.007812 26.648438 136.777344 27.167969 Z M 136.777344 27.167969 "
    fill-opacity="1"
    fill-rule="nonzero"
  /><path
    fill="#262626"
    d="M 140.855469 18.480469 C 139.558594 17.324219 138.8125 17.992188 136.652344 19.160156 C 135.710938 17.78125 136.222656 16.761719 136.859375 16.296875 C 136.515625 16.273438 136.179688 16.320312 135.855469 16.4375 C 135.644531 16.101562 135.882812 15.660156 136.140625 15.351562 C 137.039062 14.257812 138.230469 13.378906 139.585938 13.039062 C 140.9375 12.695312 142.457031 12.9375 143.550781 13.828125 C 143.730469 13.972656 143.914062 14.148438 144.140625 14.195312 C 144.308594 14.21875 144.476562 14.203125 144.636719 14.15625 C 145.976562 13.871094 147.394531 13.746094 148.691406 14.1875 C 150.277344 14.726562 151.53125 16.089844 152.179688 17.671875 C 152.832031 19.253906 152.921875 21.039062 152.671875 22.738281 C 152.597656 23.378906 152.425781 23.992188 152.148438 24.574219 C 151.46875 25.902344 149.675781 26.546875 148.226562 26.742188 C 147.296875 25.9375 148.0625 25.003906 147.96875 22.566406 C 147.914062 21.078125 146.667969 19.652344 145.296875 19.171875 C 143.925781 18.691406 142.300781 18.574219 140.855469 18.480469 Z M 140.855469 18.480469 "
    fill-opacity="1"
    fill-rule="nonzero"
  /><path
    fill="#262626"
    d="M 142.773438 24.066406 C 142.933594 24.132812 143.042969 24.261719 143.09375 24.464844 C 143.144531 24.664062 143.128906 24.875 143.042969 25.097656 C 142.953125 25.316406 142.824219 25.480469 142.648438 25.59375 C 142.472656 25.703125 142.304688 25.726562 142.140625 25.660156 C 141.980469 25.597656 141.875 25.464844 141.820312 25.265625 C 141.769531 25.0625 141.785156 24.851562 141.875 24.632812 C 141.960938 24.414062 142.09375 24.246094 142.269531 24.136719 C 142.445312 24.027344 142.613281 24.003906 142.773438 24.066406 Z M 142.773438 24.066406 "
    fill-opacity="1"
    fill-rule="nonzero"
  /><path
    fill="#262626"
    d="M 138.535156 21.3125 C 138.695312 21.375 138.804688 21.507812 138.855469 21.710938 C 138.910156 21.910156 138.890625 22.121094 138.804688 22.339844 C 138.71875 22.5625 138.585938 22.726562 138.410156 22.835938 C 138.234375 22.945312 138.066406 22.96875 137.90625 22.90625 C 137.742188 22.84375 137.636719 22.710938 137.585938 22.507812 C 137.53125 22.308594 137.550781 22.097656 137.636719 21.878906 C 137.722656 21.65625 137.855469 21.492188 138.03125 21.382812 C 138.207031 21.269531 138.375 21.246094 138.535156 21.3125 Z M 138.535156 21.3125 "
    fill-opacity="1"
    fill-rule="nonzero"
  /><path
    fill="#262626"
    d="M 138.148438 19.828125 C 138.765625 19.800781 138.945312 19.714844 139.429688 19.761719 C 139.789062 19.800781 140.207031 19.90625 140.335938 20.25 C 140.355469 20.296875 140.359375 20.34375 140.347656 20.394531 C 140.3125 20.476562 140.246094 20.523438 140.15625 20.539062 C 139.375 20.757812 138.777344 20.347656 138.148438 19.828125 Z M 138.148438 19.828125 "
    fill-opacity="1"
    fill-rule="nonzero"
  /><path
    fill="#262626"
    d="M 138.515625 25.847656 C 138.46875 25.847656 138.421875 25.847656 138.378906 25.839844 C 137.882812 25.75 137.554688 25.460938 137.402344 24.980469 C 137.339844 24.777344 137.335938 24.570312 137.390625 24.367188 C 137.449219 24.160156 137.558594 23.988281 137.71875 23.847656 C 137.761719 23.796875 137.816406 23.769531 137.882812 23.765625 C 137.945312 23.765625 138 23.789062 138.046875 23.835938 C 138.089844 23.886719 138.109375 23.941406 138.101562 24.007812 C 138.09375 24.074219 138.0625 24.125 138.007812 24.160156 C 137.78125 24.34375 137.714844 24.574219 137.804688 24.851562 C 137.902344 25.164062 138.113281 25.355469 138.433594 25.425781 C 138.667969 25.457031 138.839844 25.367188 138.953125 25.160156 C 139.03125 25.035156 139.132812 25.011719 139.253906 25.09375 C 139.378906 25.175781 139.398438 25.277344 139.308594 25.398438 C 139.125 25.691406 138.859375 25.84375 138.515625 25.847656 Z M 138.515625 25.847656 "
    fill-opacity="1"
    fill-rule="nonzero"
  /><path
    fill="#262626"
    d="M 149.757812 25.484375 C 149.699219 25.484375 149.640625 25.476562 149.582031 25.46875 C 149.488281 25.453125 149.449219 25.398438 149.464844 25.300781 C 149.480469 25.207031 149.535156 25.167969 149.628906 25.183594 C 150.074219 25.253906 150.730469 24.925781 151.160156 24.425781 C 151.535156 23.972656 151.769531 23.457031 151.863281 22.878906 C 151.878906 22.785156 151.9375 22.746094 152.03125 22.765625 C 152.125 22.785156 152.160156 22.839844 152.140625 22.933594 C 152.039062 23.5625 151.785156 24.121094 151.378906 24.609375 C 150.992188 25.058594 150.335938 25.484375 149.757812 25.484375 Z M 149.757812 25.484375 "
    fill-opacity="1"
    fill-rule="nonzero"
  /><path
    fill="#00ef67"
    d="M 73.539062 113.347656 C 71.71875 113.453125 69.972656 113.117188 68.65625 111.867188 C 67.335938 110.613281 66.652344 108.859375 66.078125 107.128906 C 65.785156 106.226562 65.507812 105.300781 64.972656 104.519531 C 64.054688 103.191406 62.496094 102.449219 61.101562 101.589844 C 57.574219 99.40625 54.78125 96.0625 53.78125 92.054688 C 52.777344 88.042969 53.714844 83.386719 56.625 80.027344 C 59.042969 81.277344 60.203125 83.929688 61.203125 86.414062 L 63.324219 91.675781 C 63.789062 92.820312 64.316406 94.050781 65.421875 94.652344 C 66.1875 95.066406 67.121094 95.121094 67.992188 95.308594 C 72.488281 96.289062 75.015625 101.339844 73.804688 105.820312 C 73.480469 107.023438 72.929688 108.199219 72.804688 109.425781 C 72.675781 110.652344 73.152344 112.871094 74.285156 113.335938 Z M 73.539062 113.347656 "
    fill-opacity="1"
    fill-rule="nonzero"
  /><path
    fill="#00ef67"
    d="M 72.472656 113.371094 C 69.691406 113.175781 68.421875 111.167969 67.480469 108.351562 C 66.535156 105.539062 66.699219 102.46875 67.007812 99.523438 C 67.167969 97.984375 67.367188 96.429688 67.148438 94.890625 C 66.765625 92.265625 65.214844 90.015625 63.945312 87.710938 C 60.734375 81.882812 59.152344 74.917969 60.253906 68.328125 C 61.355469 61.742188 65.324219 55.65625 71.03125 52.957031 C 73.378906 56.59375 73.277344 61.324219 73.078125 65.699219 L 72.664062 74.953125 C 72.574219 76.976562 72.519531 79.160156 73.578125 80.867188 C 74.308594 82.046875 75.46875 82.828125 76.46875 83.753906 C 81.632812 88.566406 81.859375 97.816406 77.652344 103.433594 C 76.511719 104.9375 75.113281 106.238281 74.222656 107.929688 C 73.335938 109.621094 73.058594 111.839844 74.222656 113.367188 C 73.640625 113.40625 73.058594 113.40625 72.472656 113.371094 Z M 72.472656 113.371094 "
    fill-opacity="1"
    fill-rule="nonzero"
  /><path
    fill="#262626"
    d="M 67.203125 95.277344 C 67.632812 100.753906 65.558594 101.835938 65.699219 104.972656 C 65.800781 107.253906 66.617188 108.925781 67.792969 110.878906 C 68.972656 112.835938 71.554688 114.144531 73.800781 113.117188 C 71.460938 112.84375 69.496094 111.054688 68.46875 108.933594 C 67.445312 106.808594 67.226562 104.390625 67.234375 102.03125 C 67.242188 99.671875 67.460938 95.394531 67.203125 95.277344 Z M 67.203125 95.277344 "
    fill-opacity="1"
    fill-rule="nonzero"
  /><path
    fill="#262626"
    d="M 74.082031 112.53125 C 73.601562 112.101562 73.179688 111.613281 72.824219 111.074219 C 72.480469 110.523438 72.207031 109.941406 72 109.328125 C 71.601562 108.085938 71.410156 106.8125 71.421875 105.511719 C 71.429688 104.21875 71.566406 102.9375 71.820312 101.667969 C 72.0625 100.40625 72.355469 99.152344 72.605469 97.898438 C 72.726562 97.273438 72.84375 96.644531 72.929688 96.011719 C 72.980469 95.695312 73.011719 95.378906 73.046875 95.066406 C 73.085938 94.75 73.109375 94.433594 73.117188 94.113281 C 73.1875 92.84375 73.058594 91.589844 72.734375 90.359375 C 72.398438 89.128906 71.929688 87.953125 71.328125 86.832031 C 70.742188 85.703125 70.074219 84.605469 69.40625 83.511719 C 68.738281 82.417969 68.074219 81.316406 67.476562 80.171875 C 67.324219 79.882812 67.191406 79.597656 67.046875 79.304688 C 66.90625 79.007812 66.78125 78.710938 66.652344 78.414062 C 66.40625 77.816406 66.175781 77.210938 65.988281 76.589844 C 65.210938 74.09375 64.886719 71.539062 65.019531 68.929688 C 65.144531 66.324219 65.691406 63.8125 66.660156 61.394531 C 67.625 58.980469 68.992188 56.816406 70.753906 54.902344 C 69.917969 55.878906 69.167969 56.914062 68.511719 58.019531 C 67.855469 59.121094 67.304688 60.273438 66.851562 61.472656 C 65.9375 63.878906 65.433594 66.367188 65.347656 68.941406 C 65.308594 70.214844 65.367188 71.484375 65.527344 72.75 C 65.691406 74.015625 65.964844 75.257812 66.355469 76.472656 C 66.542969 77.082031 66.773438 77.675781 67.011719 78.261719 C 67.140625 78.546875 67.269531 78.84375 67.40625 79.128906 C 67.542969 79.414062 67.683594 79.703125 67.835938 79.980469 C 68.429688 81.105469 69.101562 82.199219 69.769531 83.292969 C 70.4375 84.386719 71.097656 85.496094 71.6875 86.648438 C 72.296875 87.796875 72.773438 89.003906 73.109375 90.261719 C 73.4375 91.53125 73.5625 92.816406 73.484375 94.125 C 73.402344 95.417969 73.21875 96.695312 72.925781 97.957031 C 72.390625 100.472656 71.652344 102.945312 71.636719 105.507812 C 71.589844 106.796875 71.75 108.058594 72.109375 109.292969 C 72.300781 109.90625 72.558594 110.488281 72.882812 111.039062 C 73.21875 111.589844 73.617188 112.085938 74.082031 112.53125 Z M 74.082031 112.53125 "
    fill-opacity="1"
    fill-rule="nonzero"
  /><path
    fill="#262626"
    d="M 56.851562 80.1875 C 57.027344 81.222656 57.117188 82.269531 57.199219 83.316406 C 57.277344 84.363281 57.308594 85.414062 57.371094 86.460938 C 57.429688 87.503906 57.503906 88.546875 57.65625 89.578125 C 57.789062 90.605469 58.015625 91.617188 58.328125 92.605469 C 58.636719 93.597656 59.058594 94.535156 59.59375 95.421875 C 60.132812 96.304688 60.804688 97.074219 61.609375 97.730469 C 62.40625 98.375 63.359375 98.828125 64.257812 99.375 C 64.714844 99.648438 65.140625 99.957031 65.539062 100.3125 C 65.640625 100.402344 65.734375 100.496094 65.824219 100.597656 C 65.914062 100.695312 66 100.796875 66.078125 100.902344 C 66.164062 101.003906 66.222656 101.121094 66.296875 101.230469 C 66.375 101.339844 66.417969 101.464844 66.476562 101.582031 C 66.21875 101.125 65.882812 100.730469 65.46875 100.402344 C 65.058594 100.082031 64.621094 99.800781 64.160156 99.5625 C 63.246094 99.066406 62.269531 98.652344 61.410156 98 C 61.296875 97.925781 61.199219 97.832031 61.09375 97.75 C 60.992188 97.667969 60.886719 97.582031 60.789062 97.488281 C 60.601562 97.300781 60.402344 97.121094 60.226562 96.914062 C 59.867188 96.515625 59.542969 96.09375 59.253906 95.640625 C 58.691406 94.730469 58.246094 93.765625 57.925781 92.742188 C 57.605469 91.726562 57.382812 90.6875 57.257812 89.632812 C 57.128906 88.582031 57.066406 87.53125 57.042969 86.484375 C 56.976562 84.371094 57.03125 82.28125 56.851562 80.1875 Z M 56.851562 80.1875 "
    fill-opacity="1"
    fill-rule="nonzero"
  /><path
    fill="#262626"
    d="M 151.171875 63.875 C 151.253906 62.785156 151.417969 61.703125 151.660156 60.636719 C 151.730469 60.324219 151.832031 59.980469 152.109375 59.820312 C 152.386719 59.664062 152.773438 59.757812 153.085938 59.882812 C 153.703125 60.128906 154.292969 60.429688 154.851562 60.785156 C 155.3125 61.070312 155.757812 61.417969 156.023438 61.890625 C 156.292969 62.363281 156.355469 62.9375 156.359375 63.488281 C 156.363281 64.164062 156.300781 64.828125 156.164062 65.488281 C 156.097656 65.820312 155.976562 66.191406 155.667969 66.328125 C 155.429688 66.433594 155.152344 66.367188 154.90625 66.289062 C 153.441406 65.824219 152.195312 65.019531 151.171875 63.875 Z M 151.171875 63.875 "
    fill-opacity="1"
    fill-rule="nonzero"
  /><path
    fill="#262626"
    d="M 165.046875 114.519531 C 165.003906 114.519531 164.964844 114.507812 164.929688 114.484375 C 160.453125 111.574219 160.691406 104.613281 160.871094 102.550781 C 161.046875 100.535156 161.476562 98.527344 161.890625 96.585938 C 162.351562 94.453125 162.824219 92.246094 162.953125 90.042969 C 163.382812 82.71875 160.089844 75.710938 157.191406 69.527344 C 157.160156 69.472656 157.15625 69.417969 157.175781 69.359375 C 157.195312 69.296875 157.230469 69.253906 157.289062 69.230469 C 157.34375 69.203125 157.402344 69.203125 157.457031 69.222656 C 157.515625 69.246094 157.554688 69.289062 157.578125 69.347656 C 160.5 75.574219 163.8125 82.632812 163.378906 90.066406 C 163.25 92.304688 162.773438 94.527344 162.3125 96.675781 C 161.898438 98.605469 161.472656 100.601562 161.296875 102.585938 C 161.125 104.574219 160.890625 111.34375 165.160156 114.125 C 165.25 114.179688 165.28125 114.261719 165.25 114.363281 C 165.21875 114.46875 165.152344 114.519531 165.042969 114.519531 Z M 165.046875 114.519531 "
    fill-opacity="1"
    fill-rule="nonzero"
  /><path
    fill="#00ef67"
    d="M 162.308594 113.390625 C 158.34375 112.390625 156.960938 108.328125 158.203125 105.230469 C 159.445312 102.132812 162.484375 99.722656 165.058594 97.175781 C 167.628906 94.625 169.90625 91.503906 169.199219 88.308594 C 168.902344 86.964844 168.09375 85.722656 167.699219 84.394531 C 167.304688 83.070312 167.421875 81.507812 168.691406 80.570312 C 171.667969 82.289062 174.386719 84.402344 175.84375 87.050781 C 177.300781 89.699219 177.316406 92.949219 175.207031 95.316406 C 173.070312 97.710938 168.960938 99.144531 168.21875 102 C 167.386719 105.214844 171.4375 108.320312 170.507812 111.523438 C 170.050781 113.117188 166.730469 114.292969 164.644531 114.386719 C 163.050781 114.464844 163.171875 114.53125 162.308594 113.390625 Z M 162.308594 113.390625 "
    fill-opacity="1"
    fill-rule="nonzero"
  /><path
    fill="#00ef67"
    d="M 160.625 114.367188 C 157.144531 113.519531 154.234375 111.21875 152.367188 108.785156 C 150.5 106.347656 149.832031 103.371094 150.53125 100.585938 C 151.105469 98.304688 152.558594 96.113281 152.363281 93.796875 C 152.105469 90.71875 148.972656 88.042969 149.125 84.964844 C 152.316406 84.964844 155.484375 86.109375 157.527344 88.011719 C 159.574219 89.910156 160.460938 92.539062 159.882812 94.980469 C 159.5 96.597656 158.511719 98.210938 158.976562 99.816406 C 159.46875 101.519531 161.4375 102.679688 162.726562 104.109375 C 164.796875 106.402344 165.082031 109.40625 164.566406 112.175781 C 164.445312 112.824219 164.457031 113.195312 163.992188 113.738281 C 163.53125 114.28125 164.0625 114.394531 163.121094 114.394531 C 162.277344 114.386719 161.230469 114.40625 160.625 114.367188 Z M 160.625 114.367188 "
    fill-opacity="1"
    fill-rule="nonzero"
  /><path
    fill="#262626"
    d="M 160.304688 101.953125 C 159.515625 102.871094 158.566406 103.640625 157.757812 104.542969 C 156.949219 105.441406 155.699219 107.46875 155.628906 108.675781 C 155.371094 113.003906 159.117188 114.089844 160.363281 114.304688 C 161.503906 114.460938 162.652344 114.488281 163.796875 114.382812 C 161.394531 113.667969 159.878906 113.253906 158.613281 111.089844 C 157.625 109.394531 157.574219 107.105469 158.402344 105.324219 C 158.875 104.316406 159.082031 103.679688 160.304688 101.953125 Z M 160.304688 101.953125 "
    fill-opacity="1"
    fill-rule="nonzero"
  /><path
    fill="#262626"
    d="M 164.53125 114.484375 C 164.480469 114.484375 164.4375 114.460938 164.410156 114.417969 C 161.976562 110.5 162.160156 105.144531 164.839844 101.398438 C 165.777344 100.089844 166.984375 98.980469 168.148438 97.914062 C 168.464844 97.625 168.792969 97.320312 169.113281 97.019531 C 170.46875 95.730469 171.949219 94.15625 172.625 92.191406 C 173 91.078125 173.105469 89.9375 172.9375 88.769531 C 172.773438 87.605469 172.355469 86.539062 171.683594 85.574219 C 171.617188 85.496094 171.628906 85.425781 171.710938 85.367188 C 171.792969 85.308594 171.863281 85.320312 171.914062 85.410156 C 172.613281 86.414062 173.046875 87.519531 173.21875 88.730469 C 173.390625 89.9375 173.285156 91.121094 172.894531 92.28125 C 172.199219 94.304688 170.691406 95.914062 169.308594 97.222656 C 168.988281 97.523438 168.660156 97.828125 168.34375 98.121094 C 167.1875 99.179688 165.992188 100.273438 165.074219 101.554688 C 162.453125 105.210938 162.277344 110.433594 164.644531 114.257812 C 164.691406 114.339844 164.675781 114.40625 164.597656 114.457031 C 164.578125 114.46875 164.554688 114.480469 164.53125 114.484375 Z M 164.53125 114.484375 "
    fill-opacity="1"
    fill-rule="nonzero"
  /><path
    fill="#262626"
    d="M 155.859375 107.023438 C 155.84375 107.023438 155.824219 107.019531 155.808594 107.015625 C 155.488281 106.898438 153.992188 104.628906 154.0625 103.007812 C 154.148438 101.089844 154.613281 99.824219 155.199219 98.222656 C 155.289062 97.972656 155.382812 97.714844 155.484375 97.449219 C 155.570312 97.207031 155.660156 96.957031 155.753906 96.707031 C 156.410156 94.945312 157.152344 92.945312 156.515625 91.199219 C 155.6875 88.929688 154.035156 87.863281 151.46875 86.789062 C 151.382812 86.753906 151.355469 86.691406 151.390625 86.605469 C 151.425781 86.515625 151.488281 86.492188 151.578125 86.527344 C 154.21875 87.632812 155.917969 88.734375 156.785156 91.101562 C 157.457031 92.945312 156.695312 95 156.023438 96.808594 C 155.929688 97.058594 155.839844 97.304688 155.753906 97.542969 C 155.65625 97.8125 155.5625 98.070312 155.46875 98.324219 C 154.894531 99.898438 154.433594 101.148438 154.351562 103.019531 C 154.28125 104.578125 155.714844 106.617188 155.921875 106.742188 C 156.007812 106.777344 156.035156 106.835938 156.003906 106.921875 C 155.980469 106.992188 155.933594 107.027344 155.859375 107.023438 Z M 155.859375 107.023438 "
    fill-opacity="1"
    fill-rule="nonzero"
  /><path
    fill="#5553ad"
    d="M 149.382812 66.367188 C 150.527344 67.667969 151.835938 68.929688 153.515625 69.566406 C 155.195312 70.203125 157.332031 70.066406 158.574219 68.84375 C 159.3125 68.117188 159.644531 67.109375 159.757812 66.121094 C 159.863281 65.097656 159.777344 64.085938 159.496094 63.09375 C 159.21875 62.097656 158.765625 61.191406 158.140625 60.371094 C 158.140625 60.40625 157.179688 59.691406 155.808594 61.011719 C 155.234375 61.558594 155 62.34375 154.996094 63.105469 C 154.996094 63.863281 155.203125 64.609375 155.414062 65.34375 C 154.457031 64.117188 152.695312 63.472656 151.09375 63.75 C 150.332031 63.878906 149.5625 64.242188 149.210938 64.882812 C 148.859375 65.519531 149.097656 66.445312 149.382812 66.367188 Z M 149.382812 66.367188 "
    fill-opacity="1"
    fill-rule="nonzero"
  /><path
    fill="#262626"
    d="M 156.886719 68.746094 C 156.8125 68.746094 156.765625 68.707031 156.746094 68.636719 C 156.730469 68.566406 156.753906 68.511719 156.816406 68.476562 C 157.195312 68.277344 157.53125 68.019531 157.824219 67.707031 C 158.117188 67.390625 158.347656 67.039062 158.519531 66.644531 C 158.691406 66.253906 158.796875 65.84375 158.828125 65.417969 C 158.863281 64.988281 158.828125 64.570312 158.71875 64.152344 C 158.542969 63.582031 158.304688 63.039062 158.003906 62.523438 C 157.734375 62.046875 157.511719 61.554688 157.328125 61.042969 C 157.300781 60.953125 157.332031 60.890625 157.421875 60.863281 C 157.511719 60.835938 157.574219 60.867188 157.601562 60.957031 C 157.777344 61.453125 157.996094 61.929688 158.253906 62.386719 C 158.566406 62.921875 158.808594 63.488281 158.988281 64.078125 C 159.105469 64.523438 159.148438 64.976562 159.109375 65.4375 C 159.074219 65.898438 158.964844 66.335938 158.777344 66.757812 C 158.59375 67.183594 158.34375 67.5625 158.03125 67.898438 C 157.714844 68.238281 157.355469 68.511719 156.949219 68.730469 C 156.929688 68.738281 156.90625 68.746094 156.886719 68.746094 Z M 156.886719 68.746094 "
    fill-opacity="1"
    fill-rule="nonzero"
  /><path
    fill="#262626"
    d="M 154.648438 61.765625 C 154.601562 61.765625 154.566406 61.75 154.539062 61.714844 C 154.007812 61.109375 153.351562 60.707031 152.570312 60.507812 C 152.476562 60.484375 152.441406 60.429688 152.464844 60.335938 C 152.488281 60.242188 152.546875 60.207031 152.636719 60.230469 C 153.480469 60.441406 154.183594 60.875 154.753906 61.527344 C 154.792969 61.574219 154.800781 61.625 154.777344 61.679688 C 154.75 61.734375 154.707031 61.765625 154.648438 61.765625 Z M 154.648438 61.765625 "
    fill-opacity="1"
    fill-rule="nonzero"
  /><path
    fill="#262626"
    d="M 72.109375 47.949219 C 71.226562 47.949219 70.339844 47.6875 69.675781 47.03125 C 69.597656 46.964844 69.59375 46.894531 69.667969 46.820312 C 69.738281 46.75 69.808594 46.75 69.875 46.828125 C 70.9375 47.875 72.644531 47.820312 73.863281 47.304688 C 75.214844 46.734375 76.3125 45.617188 77.28125 44.628906 C 77.347656 44.5625 77.414062 44.5625 77.484375 44.628906 C 77.550781 44.695312 77.550781 44.761719 77.484375 44.832031 C 76.496094 45.832031 75.378906 46.980469 73.972656 47.570312 C 73.378906 47.820312 72.753906 47.945312 72.109375 47.949219 Z M 72.109375 47.949219 "
    fill-opacity="1"
    fill-rule="nonzero"
  /><path
    fill="#262626"
    d="M 137.820312 134.832031 C 137.441406 134.832031 137.074219 134.757812 136.726562 134.601562 C 135.953125 134.25 134.980469 132.949219 134.902344 132.15625 C 134.890625 132.0625 134.933594 132.011719 135.027344 132 C 135.121094 131.992188 135.175781 132.035156 135.183594 132.128906 C 135.253906 132.816406 136.167969 134.035156 136.84375 134.339844 C 137.195312 134.496094 137.5625 134.5625 137.945312 134.542969 C 138.328125 134.523438 138.6875 134.421875 139.019531 134.234375 C 139.105469 134.1875 139.167969 134.203125 139.21875 134.285156 C 139.265625 134.367188 139.25 134.433594 139.164062 134.480469 C 138.75 134.71875 138.300781 134.835938 137.820312 134.832031 Z M 137.820312 134.832031 "
    fill-opacity="1"
    fill-rule="nonzero"
  /><path
    fill="#00ef67"
    d="M 13.019531 82.429688 C 13.914062 82.976562 13.972656 84.449219 13.828125 85.488281 C 12.9375 91.8125 7.234375 96.511719 5.726562 102.71875 C 4.464844 107.921875 6.609375 113.785156 10.925781 116.945312 C 13.339844 115.40625 15.085938 114.226562 17.257812 110.867188 C 18.429688 109.046875 18 106.914062 17.308594 104.851562 C 16.621094 102.792969 15.488281 100.851562 15.285156 98.699219 C 14.800781 93.636719 19.46875 89.117188 19.003906 84.054688 C 17.007812 83.578125 15.054688 82.925781 13.019531 82.429688 Z M 13.019531 82.429688 "
    fill-opacity="1"
    fill-rule="nonzero"
  /><path
    fill="#262626"
    d="M 16.453125 83.378906 C 16.390625 84.070312 16.320312 84.761719 16.214844 85.453125 C 16.109375 86.140625 15.992188 86.828125 15.855469 87.511719 C 15.566406 88.878906 15.203125 90.226562 14.765625 91.550781 C 14.335938 92.878906 13.820312 94.179688 13.265625 95.460938 C 12.714844 96.742188 12.085938 97.984375 11.566406 99.261719 C 11.050781 100.542969 10.617188 101.855469 10.496094 103.21875 C 10.375 104.585938 10.59375 105.941406 10.886719 107.296875 C 11.179688 108.65625 11.542969 110.007812 11.671875 111.40625 C 11.738281 112.105469 11.734375 112.804688 11.652344 113.503906 C 11.609375 113.851562 11.542969 114.195312 11.445312 114.53125 C 11.347656 114.867188 11.222656 115.191406 11.074219 115.507812 C 11.332031 114.859375 11.488281 114.183594 11.535156 113.488281 C 11.582031 112.796875 11.558594 112.109375 11.457031 111.425781 C 11.285156 110.054688 10.886719 108.722656 10.558594 107.367188 C 10.230469 106.011719 9.976562 104.605469 10.085938 103.179688 C 10.199219 101.757812 10.636719 100.398438 11.164062 99.101562 C 11.691406 97.808594 12.324219 96.5625 12.878906 95.296875 C 13.4375 94.035156 13.980469 92.746094 14.449219 91.445312 C 15.386719 88.820312 16.054688 86.132812 16.453125 83.378906 Z M 16.453125 83.378906 "
    fill-opacity="1"
    fill-rule="nonzero"
  /></svg>
